<svg width="24" height="24" viewBox="0 0 24 24" fill="none" xmlns="http://www.w3.org/2000/svg">
<path d="M11.9999 16.5C9.6296 16.5 7.71085 14.6653 7.53429 12.3403L4.25618 9.80688C3.82524 10.3475 3.42868 10.9191 3.10868 11.5441C3.03719 11.6855 2.99995 11.8417 2.99995 12.0002C2.99995 12.1586 3.03719 12.3148 3.10868 12.4562C4.80336 15.7628 8.15835 18 11.9999 18C12.8408 18 13.6521 17.875 14.434 17.6731L12.8124 16.4184C12.5446 16.4702 12.2726 16.4975 11.9999 16.5ZM21.8067 18.3156L18.3521 15.6456C19.4015 14.7612 20.2646 13.677 20.8911 12.4559C20.9626 12.3145 20.9999 12.1583 20.9999 11.9998C20.9999 11.8414 20.9626 11.6852 20.8911 11.5437C19.1964 8.2372 15.8415 6.00001 11.9999 6.00001C10.391 6.00196 8.80823 6.407 7.39617 7.17814L3.42055 4.10533C3.36871 4.06499 3.30943 4.03526 3.24609 4.01784C3.18275 4.00042 3.1166 3.99565 3.05142 4.00381C2.98624 4.01196 2.9233 4.03288 2.86621 4.06537C2.80912 4.09786 2.75899 4.14128 2.71868 4.19315L2.10524 4.98283C2.02387 5.08751 1.98741 5.22023 2.00387 5.35179C2.02034 5.48336 2.08839 5.60299 2.19306 5.68439L20.5793 19.8947C20.6311 19.935 20.6904 19.9647 20.7537 19.9822C20.8171 19.9996 20.8832 20.0043 20.9484 19.9962C21.0136 19.988 21.0765 19.9671 21.1336 19.9346C21.1907 19.9021 21.2408 19.8587 21.2811 19.8068L21.8949 19.0172C21.9762 18.9124 22.0126 18.7797 21.9961 18.6481C21.9796 18.5166 21.9115 18.397 21.8067 18.3156ZM16.0655 13.8781L14.8374 12.9287C14.9408 12.6298 14.9957 12.3163 14.9999 12C15.006 11.537 14.9034 11.0789 14.7004 10.6627C14.4974 10.2465 14.1996 9.88374 13.8309 9.60351C13.4622 9.32328 13.033 9.13342 12.5776 9.04917C12.1223 8.96493 11.6535 8.98866 11.209 9.11844C11.3974 9.37379 11.4993 9.68265 11.4999 10C11.4952 10.1056 11.4791 10.2104 11.4518 10.3125L9.15147 8.53469C9.95053 7.86695 10.9586 7.50078 11.9999 7.50001C12.5909 7.49968 13.1762 7.61585 13.7224 7.84188C14.2685 8.06791 14.7647 8.39936 15.1826 8.81729C15.6005 9.23522 15.932 9.73143 16.158 10.2775C16.384 10.8236 16.5002 11.409 16.4999 12C16.4999 12.6759 16.3346 13.3059 16.0655 13.8784V13.8781Z" fill="currentColor"/>
</svg>
