<svg width="24" height="24" viewBox="0 0 24 24" fill="none" xmlns="http://www.w3.org/2000/svg">
<path d="M9.14283 2H6.28569C5.49685 2 4.85712 2.63973 4.85712 3.42857V6.28571C4.85712 7.07455 5.49685 7.71429 6.28569 7.71429H9.14283C9.93167 7.71429 10.5714 7.07455 10.5714 6.28571V3.42857C10.5714 2.63973 9.93167 2 9.14283 2ZM9.14283 9.14286H6.28569C5.49685 9.14286 4.85712 9.78259 4.85712 10.5714V13.4286C4.85712 14.2174 5.49685 14.8571 6.28569 14.8571H9.14283C9.93167 14.8571 10.5714 14.2174 10.5714 13.4286V10.5714C10.5714 9.78259 9.93167 9.14286 9.14283 9.14286ZM9.14283 16.2857H6.28569C5.49685 16.2857 4.85712 16.9254 4.85712 17.7143V20.5714C4.85712 21.3603 5.49685 22 6.28569 22H9.14283C9.93167 22 10.5714 21.3603 10.5714 20.5714V17.7143C10.5714 16.9254 9.93167 16.2857 9.14283 16.2857ZM17.7143 2H14.8571C14.0683 2 13.4285 2.63973 13.4285 3.42857V6.28571C13.4285 7.07455 14.0683 7.71429 14.8571 7.71429H17.7143C18.5031 7.71429 19.1428 7.07455 19.1428 6.28571V3.42857C19.1428 2.63973 18.5031 2 17.7143 2ZM17.7143 9.14286H14.8571C14.0683 9.14286 13.4285 9.78259 13.4285 10.5714V13.4286C13.4285 14.2174 14.0683 14.8571 14.8571 14.8571H17.7143C18.5031 14.8571 19.1428 14.2174 19.1428 13.4286V10.5714C19.1428 9.78259 18.5031 9.14286 17.7143 9.14286ZM17.7143 16.2857H14.8571C14.0683 16.2857 13.4285 16.9254 13.4285 17.7143V20.5714C13.4285 21.3603 14.0683 22 14.8571 22H17.7143C18.5031 22 19.1428 21.3603 19.1428 20.5714V17.7143C19.1428 16.9254 18.5031 16.2857 17.7143 16.2857Z" fill="currentColor"/>
</svg>
