<svg width="24" height="24" viewBox="0 0 24 24" fill="none" xmlns="http://www.w3.org/2000/svg">
<path d="M21.6726 8.70129L21.9915 6.91558C22.0501 6.58723 21.7977 6.28571 21.4641 6.28571H18.1244L18.7772 2.62987C18.8358 2.30152 18.5834 2 18.2499 2H16.4359C16.3102 2 16.1884 2.04424 16.092 2.12497C15.9956 2.2057 15.9307 2.31777 15.9086 2.44156L15.2221 6.28571H10.8188L11.4716 2.62987C11.5302 2.30152 11.2778 2 10.9442 2H9.13027C9.00452 2 8.88278 2.04424 8.78636 2.12497C8.68995 2.2057 8.625 2.31777 8.6029 2.44156L7.91643 6.28571H4.38536C4.25961 6.28571 4.13787 6.32995 4.04145 6.41068C3.94504 6.49141 3.8801 6.60348 3.858 6.72727L3.53911 8.51299C3.4805 8.84134 3.73295 9.14285 4.06648 9.14285H7.40621L6.38581 14.8571H2.85474C2.72899 14.8571 2.60725 14.9014 2.51083 14.9821C2.41442 15.0628 2.34947 15.1749 2.32737 15.2987L2.00849 17.0844C1.94987 17.4128 2.20233 17.7143 2.53585 17.7143H5.87558L5.22277 21.3701C5.16416 21.6985 5.41661 22 5.75014 22H7.56406C7.68981 22 7.81156 21.9557 7.90797 21.875C8.00439 21.7943 8.06933 21.6822 8.09143 21.5584L8.77795 17.7143H13.1812L12.5284 21.3701C12.4698 21.6985 12.7222 22 13.0558 22H14.8697C14.9955 22 15.1172 21.9557 15.2136 21.875C15.3101 21.7943 15.375 21.6822 15.3971 21.5584L16.0836 17.7143H19.6146C19.7404 17.7143 19.8621 17.67 19.9585 17.5893C20.055 17.5086 20.1199 17.3965 20.142 17.2727L20.4609 15.487C20.5195 15.1587 20.267 14.8571 19.9335 14.8571H16.5938L17.6142 9.14285H21.1453C21.271 9.14285 21.3928 9.09861 21.4892 9.01788C21.5856 8.93716 21.6505 8.82508 21.6726 8.70129ZM13.6915 14.8571H9.28817L10.3086 9.14285H14.7119L13.6915 14.8571Z" fill="currentColor"/>
</svg>
