<svg width="24" height="24" viewBox="0 0 24 24" fill="none" xmlns="http://www.w3.org/2000/svg">
<path d="M22 11.9811C22.0102 17.4908 17.5169 21.9961 12.0072 21.9999C9.62761 22.0016 7.44181 21.1721 5.72411 19.7858C5.27746 19.4253 5.24407 18.7559 5.64996 18.35L6.10427 17.8957C6.45141 17.5486 7.0056 17.5106 7.3902 17.8157C8.65572 18.8199 10.2573 19.4193 12 19.4193C16.101 19.4193 19.4193 16.1004 19.4193 12C19.4193 7.89899 16.1004 4.58064 12 4.58064C10.0317 4.58064 8.24399 5.34552 6.91661 6.59403L8.96314 8.64056C9.36959 9.04701 9.08173 9.74193 8.50697 9.74193H2.64516C2.28883 9.74193 2 9.4531 2 9.09677V3.23496C2 2.6602 2.69492 2.37234 3.10137 2.77875L5.09217 4.76955C6.88746 3.05387 9.32064 2 12 2C17.5165 2 21.9898 6.46693 22 11.9811ZM14.7052 15.1579L15.1012 14.6486C15.4294 14.2267 15.3534 13.6187 14.9315 13.2906L13.2903 12.0141V7.80645C13.2903 7.27197 12.857 6.83871 12.3226 6.83871H11.6774C11.1429 6.83871 10.7097 7.27197 10.7097 7.80645V13.2762L13.3471 15.3276C13.769 15.6557 14.377 15.5797 14.7052 15.1579Z" fill="currentColor"/>
</svg>
