<svg width="24" height="24" viewBox="0 0 24 24" fill="none" xmlns="http://www.w3.org/2000/svg">
<path d="M6.0625 10.75H2.9375C2.41973 10.75 2 11.1697 2 11.6875V21.0625C2 21.5803 2.41973 22 2.9375 22H6.0625C6.58027 22 7 21.5803 7 21.0625V11.6875C7 11.1697 6.58027 10.75 6.0625 10.75ZM4.5 20.4375C3.98223 20.4375 3.5625 20.0178 3.5625 19.5C3.5625 18.9822 3.98223 18.5625 4.5 18.5625C5.01777 18.5625 5.4375 18.9822 5.4375 19.5C5.4375 20.0178 5.01777 20.4375 4.5 20.4375ZM17 5.18172C17 6.83859 15.9855 7.76797 15.7001 8.875H19.6737C20.9782 8.875 21.9939 9.95883 22 11.1445C22.0032 11.8452 21.7052 12.5995 21.2406 13.0662L21.2363 13.0705C21.6205 13.9821 21.5581 15.2595 20.8727 16.1748C21.2118 17.1863 20.87 18.4288 20.2328 19.095C20.4007 19.7824 20.3205 20.3674 19.9927 20.8384C19.1954 21.9839 17.2194 22 15.5484 22L15.4373 22C13.5511 21.9993 12.0073 21.3125 10.767 20.7607C10.1436 20.4834 9.32863 20.1401 8.71027 20.1287C8.4548 20.1241 8.25 19.9156 8.25 19.6601V11.3097C8.25 11.1847 8.30008 11.0647 8.38898 10.9768C9.93641 9.44777 10.6018 7.82891 11.8701 6.55844C12.4484 5.97906 12.6587 5.10391 12.862 4.25758C13.0357 3.53488 13.3991 2 14.1875 2C15.125 2 17 2.3125 17 5.18172Z" fill="currentColor"/>
</svg>
